<svg xmlns="http://www.w3.org/2000/svg" viewBox="0 0 226.45 221.32"><defs><style>.cls-1{fill:#fff;}.cls-2{fill:#5c7aea;}</style></defs><g id="Vectors"><path class="cls-1" d="M224,95.62c-6.67-20.09-22.45-32.27-41-37.91a85.3,85.3,0,0,0-9.53-22.87c-9.68-15.8-25.69-30-44.36-33.55-20.63-3.94-41.91,1-56.79,16.48-5.54,5.74-9.17,12.52-12,19.75a52.37,52.37,0,0,0-11.74,3C37.35,45,26.66,50.9,18.57,60.1-1,82.36-8.65,116.22,13.32,140a46.78,46.78,0,0,0,7.15,6.29,34,34,0,0,0,26.85,13.38l64.75.9c21.35.29,42.87,1.44,64.21.87,17.4-.46,33.68-8.12,42.77-23.49C226.54,125.28,228.64,109.64,224,95.62Z"/><path class="cls-2" d="M117.46,183.73c-4.66-5-12.07,2.08-8.21,7.25,0,.13-.06.25-.08.38-.41,3.7-5.55,6.79-7.64,9.62a14.67,14.67,0,0,0-3.19,10.49c.91,8.29,8.85,10.92,16.12,9.47,7.45-1.5,13.1-7.3,13.67-15C128.81,197,123.21,189.93,117.46,183.73Z"/><path class="cls-2" d="M165.69,155.06c-4.67-5-12.07,2.08-8.22,7.25,0,.13-.06.25-.07.38-.41,3.7-5.55,6.79-7.65,9.62a14.66,14.66,0,0,0-3.18,10.49c.9,8.29,8.84,10.92,16.11,9.47,7.45-1.5,13.1-7.3,13.68-15C177,168.3,171.44,161.26,165.69,155.06Z"/><path class="cls-2" d="M69.24,155.06c-4.66-5-12.07,2.08-8.22,7.25,0,.13-.06.25-.07.38-.41,3.7-5.55,6.79-7.65,9.62a14.66,14.66,0,0,0-3.18,10.49c.91,8.29,8.84,10.92,16.11,9.47,7.46-1.5,13.11-7.3,13.68-15C80.58,168.3,75,161.26,69.24,155.06Z"/></g></svg>