<svg xmlns="http://www.w3.org/2000/svg" viewBox="0 0 29.11 20.77"><defs><style>.cls-1{fill:#fff;}</style></defs><g id="Vectors"><path class="cls-1" d="M28.8,12.29a7.61,7.61,0,0,0-5.27-4.87A11.26,11.26,0,0,0,22.3,4.48,9.05,9.05,0,0,0,16.6.17,7.89,7.89,0,0,0,9.3,2.28,7.49,7.49,0,0,0,7.75,4.82a6.71,6.71,0,0,0-1.51.39A9.81,9.81,0,0,0,2.39,7.73C-.13,10.59-1.11,14.94,1.71,18a6.93,6.93,0,0,0,.92.81,4.4,4.4,0,0,0,3.45,1.72l8.33.11c2.74,0,5.51.19,8.25.11a6.38,6.38,0,0,0,5.5-3A6.62,6.62,0,0,0,28.8,12.29Z"/></g></svg>