<svg xmlns="http://www.w3.org/2000/svg" viewBox="0 0 260.89 186.15"><defs><style>.cls-1{fill:#fff;}</style></defs><g id="Vectors"><path class="cls-1" d="M258.05,110.16C250.36,87,232.19,73,210.81,66.49a98.66,98.66,0,0,0-11-26.35C188.68,21.94,170.24,5.6,148.72,1.48,125-3.06,100.44,2.7,83.3,20.47,76.92,27.08,72.73,34.9,69.45,43.23a59.71,59.71,0,0,0-13.52,3.46C43,51.85,30.72,58.64,21.4,69.24c-22.55,25.65-31.37,64.66-6,92a53.66,53.66,0,0,0,8.23,7.25,39.26,39.26,0,0,0,30.94,15.42l74.6,1c24.58.34,49.38,1.67,74,1,20-.53,38.8-9.36,49.28-27.06C261,144.33,263.42,126.32,258.05,110.16Z"/></g></svg>