<svg xmlns="http://www.w3.org/2000/svg" viewBox="0 0 29.11 26.96"><defs><style>.cls-1{fill:#ffaa4c;}.cls-2{fill:#fff;}</style></defs><g id="Vectors"><path class="cls-1" d="M24.91,3.36A12.28,12.28,0,0,0,11.67,1a12.14,12.14,0,0,0-7.6,10.76c-.19,4.72,1.78,9.62,6,12a13.64,13.64,0,0,0,7.19,1.6,14.72,14.72,0,0,0,6.88-1.6C27.46,21.77,29,17.9,29,14.08l0-.2A13,13,0,0,0,24.91,3.36Z"/><path class="cls-2" d="M25,19.6a6.62,6.62,0,0,0-4.58-4.23,9.63,9.63,0,0,0-1.06-2.55,7.93,7.93,0,0,0-4.95-3.75,6.86,6.86,0,0,0-6.34,1.84,6.37,6.37,0,0,0-1.34,2.21,5.36,5.36,0,0,0-1.31.33,8.6,8.6,0,0,0-3.35,2.19c-2.18,2.48-3,6.26-.58,8.91a4.72,4.72,0,0,0,.79.7,3.81,3.81,0,0,0,3,1.5l7.23.1c2.38,0,4.78.16,7.16.1a5.58,5.58,0,0,0,4.78-2.63A5.79,5.79,0,0,0,25,19.6Z"/></g></svg>