<svg xmlns="http://www.w3.org/2000/svg" viewBox="0 0 260.89 209.65"><defs><style>.cls-1{fill:#a3aab3;}.cls-2{fill:#334357;}.cls-3{fill:#758895;}</style></defs><g id="Vectors"><path class="cls-1" d="M256.87,81.54c-8-27.17-28.29-51.78-53.53-64.57A121.47,121.47,0,0,0,150.92,3.88v0c-2.42-.11-4.82-.15-7.22-.13-14.44-.19-28.48,2.1-41.5,7.55A82,82,0,0,0,70.44,33.68a83.88,83.88,0,0,0-16.8,27.59,145.48,145.48,0,0,0-12.22,56.94c0,39.63,22.26,71.58,59.19,85.36,18.82,7,40.55,6.89,60.35,4.9,18-1.81,35-3.82,51-13.15a98.74,98.74,0,0,0,33.21-31.76C260.9,139.7,264.88,108.85,256.87,81.54Z"/><path class="cls-2" d="M232.09,49.35c-10.22-24.23-31.31-38.55-55.92-46C162.57-.8,116.28,1.6,104.84,5.07A93.77,93.77,0,0,0,67.5,27C47.61,45.65,38.19,71.64,36.58,98.41c-1.56,26,3.47,56.64,22.08,76,19.19,19.93,48,25.71,74.67,25,27-.68,53.73-9.86,71.47-31.1a147.64,147.64,0,0,0,18.41-27.51,85.52,85.52,0,0,0,11.09-25C239.71,95.4,240.29,68.77,232.09,49.35Z"/><path class="cls-3" d="M224,143.69c-6.67-20.09-22.45-32.27-41-37.91a85.3,85.3,0,0,0-9.53-22.87c-9.68-15.8-25.69-30-44.36-33.55-20.63-3.94-41.91,1-56.79,16.48-5.54,5.74-9.17,12.52-12,19.75a52.37,52.37,0,0,0-11.74,3c-11.19,4.48-21.88,10.37-30,19.57C-1,130.43-8.65,164.29,13.32,188.05a46.78,46.78,0,0,0,7.15,6.29,34,34,0,0,0,26.85,13.38l64.75.9c21.35.29,42.87,1.44,64.21.87,17.4-.46,33.68-8.12,42.77-23.49C226.54,173.35,228.64,157.71,224,143.69Z"/></g></svg>