<svg xmlns="http://www.w3.org/2000/svg" viewBox="0 0 33.74 26.96"><defs><style>.cls-1{fill:#a3aab3;}.cls-2{fill:#334357;}.cls-3{fill:#758895;}</style></defs><g id="Vectors"><path class="cls-1" d="M33.22,10.4A14,14,0,0,0,26.3,2.05,15.81,15.81,0,0,0,19.52.35h0c-.32,0-.63,0-.94,0a13.33,13.33,0,0,0-5.36,1,10.48,10.48,0,0,0-4.11,2.9A10.7,10.7,0,0,0,6.94,7.77a18.71,18.71,0,0,0-1.58,7.37,11.41,11.41,0,0,0,7.65,11,17.6,17.6,0,0,0,7.81.63,15.46,15.46,0,0,0,6.59-1.7A12.83,12.83,0,0,0,33.22,10.4Z"/><path class="cls-2" d="M30,6.23C28.69,3.1,26,1.25,22.78.28,21-.25,15,.06,13.56.51A12.06,12.06,0,0,0,8.73,3.34a13.59,13.59,0,0,0-4,9.24c-.2,3.36.45,7.32,2.86,9.82s6.2,3.33,9.65,3.24a12.15,12.15,0,0,0,9.24-4,18.58,18.58,0,0,0,2.38-3.56,11.13,11.13,0,0,0,1.44-3.24A14.3,14.3,0,0,0,30,6.23Z"/><path class="cls-3" d="M29,18.43a7.67,7.67,0,0,0-5.31-4.9,11.05,11.05,0,0,0-1.23-3,9.18,9.18,0,0,0-5.74-4.34A7.94,7.94,0,0,0,9.35,8.37,7.29,7.29,0,0,0,7.8,10.92a6.66,6.66,0,0,0-1.52.39A9.94,9.94,0,0,0,2.4,13.84c-2.53,2.88-3.52,7.26-.68,10.33a5.87,5.87,0,0,0,.93.81,4.39,4.39,0,0,0,3.47,1.73l8.37.12c2.76,0,5.55.19,8.31.11a6.43,6.43,0,0,0,5.53-3A6.69,6.69,0,0,0,29,18.43Z"/></g></svg>