<svg xmlns="http://www.w3.org/2000/svg" viewBox="0 0 260.89 241.61"><defs><style>.cls-1{fill:#e6e6e6;}</style></defs><g id="Vectors"><path class="cls-1" d="M258.05,137.89c-7.69-23.15-25.86-37.18-47.24-43.68a98.73,98.73,0,0,0-11-26.34c-11.15-18.2-29.59-34.54-51.11-38.66-23.77-4.54-48.28,1.22-65.42,19C76.92,54.81,72.73,62.62,69.45,71a59.71,59.71,0,0,0-13.52,3.46C43,79.58,30.72,86.37,21.4,97c-22.55,25.65-31.37,64.65-6,92a54.2,54.2,0,0,0,8.23,7.25,39.26,39.26,0,0,0,30.94,15.42l74.6,1c24.58.34,49.38,1.66,74,1,20-.53,38.8-9.36,49.28-27.06C261,172.06,263.42,154.05,258.05,137.89Z"/></g></svg>