<svg xmlns="http://www.w3.org/2000/svg" viewBox="0 0 260.89 241.61"><defs><style>.cls-1{fill:#ffaa4c;}.cls-2{fill:#fff;}</style></defs><g id="Vectors"><path class="cls-1" d="M223.22,30.09C190.79,0,145.25-8.36,104.55,8.82,65,25.53,38.16,61.63,36.43,105.19c-1.69,42.31,16,86.18,54.2,107.22,19.51,10.72,42.23,15.34,64.38,14.29,21.22-1,43-3.38,61.7-14.35C246,195.11,260.18,160.44,260,126.16c.08-.6.17-1.19.24-1.8C264.49,90.66,247.67,52.77,223.22,30.09Z"/><path class="cls-2" d="M224,175.65c-6.67-20.09-22.45-32.28-41-37.91a85.3,85.3,0,0,0-9.53-22.87c-9.68-15.8-25.69-30-44.36-33.55C108.46,77.37,87.18,82.37,72.3,97.8c-5.54,5.73-9.17,12.52-12,19.75a52.37,52.37,0,0,0-11.74,3c-11.19,4.48-21.88,10.37-30,19.57C-1,162.39-8.65,196.25,13.32,220a46.18,46.18,0,0,0,7.15,6.28,34.08,34.08,0,0,0,26.85,13.39l64.75.89c21.35.3,42.87,1.45,64.21.88,17.4-.46,33.68-8.13,42.77-23.49C226.54,205.3,228.64,189.67,224,175.65Z"/></g></svg>