<svg xmlns="http://www.w3.org/2000/svg" viewBox="0 0 37.73 31.34"><defs><style>.cls-1{fill:#ffaa4c;}.cls-2{fill:none;stroke:#000;stroke-linecap:round;stroke-linejoin:round;}</style></defs><g id="Vectors"><path class="cls-1" d="M32.34,19.88A14.26,14.26,0,0,0,27.87,10a13.06,13.06,0,0,0-14.1-2.53A12.91,12.91,0,0,0,5.67,18.9c0,.33,0,.66,0,1Z"/><line class="cls-2" x1="37.23" y1="19.88" x2="0.77" y2="19.88"/><line class="cls-2" x1="19" y1="19.88" x2="19" y2="30.26"/><polygon points="14.91 26.95 15.64 26.26 19 29.88 22.36 26.26 23.09 26.95 19 31.34 14.91 26.95"/><line class="cls-2" x1="19" y1="4.19" x2="19"/><line class="cls-2" x1="30.09" y1="8.79" x2="33.06" y2="5.82"/><line class="cls-2" x1="7.9" y1="8.79" x2="4.94" y2="5.82"/><line class="cls-2" x1="24.75" y1="5.28" x2="26.29" y2="1.38"/><line class="cls-2" x1="33.39" y1="13.63" x2="37.23" y2="11.95"/><line class="cls-2" x1="12.74" y1="5.49" x2="11.07" y2="1.65"/><line class="cls-2" x1="4.4" y1="14.13" x2="0.5" y2="12.59"/></g></svg>