<svg xmlns="http://www.w3.org/2000/svg" xmlns:xlink="http://www.w3.org/1999/xlink" viewBox="0 0 224.57 209.65"><defs><style>.cls-1{fill:none;}.cls-2{clip-path:url(#clip-path);}.cls-3{fill:#a3aab3;}.cls-4{fill:#334357;}</style><clipPath id="clip-path"><rect class="cls-1" x="-2186.67" y="-218.86" width="1920" height="773.17"/></clipPath></defs><g id="BG"><g class="cls-2"><image width="2522" height="907" transform="translate(-2500.31 -283.79)" xlink:href="../../Plus_Wk1_HW_Weather_App_A.png"/></g></g><g id="Vectors"><path class="cls-3" d="M220.55,81.54C212.57,54.37,192.27,29.76,167,17A121.47,121.47,0,0,0,114.6,3.88v0Q111,3.67,107.4,3.7C93,3.51,78.91,5.8,65.89,11.25A82,82,0,0,0,34.12,33.68,83.85,83.85,0,0,0,17.33,61.27,145.5,145.5,0,0,0,5.1,118.21c0,39.63,22.27,71.58,59.19,85.36,18.83,7,40.56,6.89,60.36,4.9,18-1.81,35-3.82,51-13.15a98.92,98.92,0,0,0,33.21-31.76C224.58,139.7,228.57,108.85,220.55,81.54Z"/><path class="cls-4" d="M195.78,49.35c-10.23-24.23-31.31-38.55-55.92-46C126.26-.8,80,1.6,68.52,5.07A93.73,93.73,0,0,0,31.19,27C11.29,45.65,1.88,71.64.27,98.41c-1.57,26,3.46,56.64,22.08,76,19.18,19.93,48,25.71,74.66,25,27-.68,53.73-9.86,71.47-31.1a147.64,147.64,0,0,0,18.41-27.51,85.25,85.25,0,0,0,11.09-25C203.39,95.4,204,68.77,195.78,49.35Z"/></g></svg>