<svg xmlns="http://www.w3.org/2000/svg" viewBox="0 0 37.73 31.34"><defs><style>.cls-1{fill:#ffaa4c;}.cls-2{fill:none;stroke:#000;stroke-linecap:round;stroke-linejoin:round;}</style></defs><g id="Vectors"><path class="cls-1" d="M32.34,31.34a14.3,14.3,0,0,0-4.47-9.9,13.06,13.06,0,0,0-14.1-2.53,12.92,12.92,0,0,0-8.1,11.46c0,.32,0,.65,0,1Z"/><line class="cls-2" x1="37.23" y1="31.34" x2="0.77" y2="31.34"/><line class="cls-2" x1="19" y1="9.46" x2="19" y2="1.08"/><polygon points="23.09 4.4 22.36 5.08 19 1.47 15.64 5.08 14.91 4.4 19 0 23.09 4.4"/><line class="cls-2" x1="19" y1="15.65" x2="19" y2="11.46"/><line class="cls-2" x1="30.09" y1="20.25" x2="33.06" y2="17.29"/><line class="cls-2" x1="7.9" y1="20.25" x2="4.94" y2="17.29"/><line class="cls-2" x1="24.75" y1="16.75" x2="26.29" y2="12.85"/><line class="cls-2" x1="33.39" y1="25.09" x2="37.23" y2="23.42"/><line class="cls-2" x1="12.74" y1="16.96" x2="11.07" y2="13.11"/><line class="cls-2" x1="4.4" y1="25.59" x2="0.5" y2="24.06"/></g></svg>