<svg xmlns="http://www.w3.org/2000/svg" viewBox="0 0 106.68 99.59"><defs><style>.cls-1{fill:#a3aab3;}.cls-2{fill:#334357;}</style></defs><g id="Vectors"><path class="cls-1" d="M104.76,38.73A51.57,51.57,0,0,0,79.34,8.06a57.82,57.82,0,0,0-24.9-6.22v0Q52.72,1.75,51,1.76A49,49,0,0,0,31.3,5.34,38.87,38.87,0,0,0,16.21,16a39.59,39.59,0,0,0-8,13.11,69.16,69.16,0,0,0-5.81,27C2.41,75,13,90.15,30.54,96.7,39.48,100,49.8,100,59.21,99c8.55-.86,16.64-1.81,24.22-6.24A46.85,46.85,0,0,0,99.2,77.69,47.39,47.39,0,0,0,104.76,38.73Z"/><path class="cls-2" d="M93,23.44C88.14,11.93,78.12,5.13,66.43,1.58,60-.38,38,.76,32.55,2.41A44.55,44.55,0,0,0,14.81,12.82C5.36,21.69.89,34,.13,46.74c-.75,12.35,1.64,26.91,10.48,36.1,9.12,9.46,22.8,12.21,35.47,11.89S71.6,90.05,80,80a70.36,70.36,0,0,0,8.75-13.07A40.53,40.53,0,0,0,94,55C96.61,45.32,96.89,32.66,93,23.44Z"/></g></svg>