<svg xmlns="http://www.w3.org/2000/svg" viewBox="0 0 27.59 26.96"><defs><style>.cls-1{fill:#fff;}.cls-2{fill:#5c7aea;}</style></defs><g id="Vectors"><path class="cls-1" d="M27.29,11.65a7.21,7.21,0,0,0-5-4.62,10.44,10.44,0,0,0-1.16-2.79A8.62,8.62,0,0,0,15.73.16a7.51,7.51,0,0,0-6.92,2A7.15,7.15,0,0,0,7.34,4.57a6.15,6.15,0,0,0-1.43.37A9.33,9.33,0,0,0,2.26,7.32C-.12,10-1,14.16,1.62,17.05a5.65,5.65,0,0,0,.87.77,4.16,4.16,0,0,0,3.27,1.63l7.89.11c2.6,0,5.23.18,7.83.11a6.06,6.06,0,0,0,5.21-2.87A6.29,6.29,0,0,0,27.29,11.65Z"/><path class="cls-2" d="M14.31,22.38c-.57-.61-1.47.26-1,.89,0,0,0,0,0,0-.05.45-.68.83-.93,1.17A1.81,1.81,0,0,0,12,25.76c.11,1,1.08,1.33,2,1.16a2,2,0,0,0,1.67-1.83A3.72,3.72,0,0,0,14.31,22.38Z"/><path class="cls-2" d="M20.19,18.89c-.57-.61-1.48.25-1,.88v.05c-.05.45-.68.83-.94,1.17a1.76,1.76,0,0,0-.38,1.28c.11,1,1.07,1.33,2,1.15a2,2,0,0,0,1.67-1.82A3.7,3.7,0,0,0,20.19,18.89Z"/><path class="cls-2" d="M8.44,18.89c-.57-.61-1.48.25-1,.88v.05c0,.45-.68.83-.94,1.17a1.76,1.76,0,0,0-.38,1.28c.11,1,1.07,1.33,2,1.15A2,2,0,0,0,9.74,21.6,3.7,3.7,0,0,0,8.44,18.89Z"/></g></svg>